<?xml version="1.0" encoding="utf-8"?>
<!-- Generator: Adobe Illustrator 10.0, SVG Export Plug-In . SVG Version: 3.0.0 Build 77)  -->
<!DOCTYPE svg PUBLIC "-//W3C//DTD SVG 1.0//EN"    "http://www.w3.org/TR/2001/REC-SVG-20010904/DTD/svg10.dtd" [
	<!ENTITY ns_flows "http://ns.adobe.com/Flows/1.0/">
	<!ENTITY ns_svg "http://www.w3.org/2000/svg">
	<!ENTITY ns_xlink "http://www.w3.org/1999/xlink">
	<!ENTITY st0 "font-family:'Myriad-Roman';">
	<!ENTITY st1 "adobe-knockout:false;">
	<!ENTITY st2 "fill:none;stroke:#000000;adobe-knockout:false;">
	<!ENTITY st3 "adobe-knockout:true;">
	<!ENTITY st4 "fill:none;stroke:#000000;">
	<!ENTITY st5 "fill:#FFFFFF;adobe-knockout:false;">
	<!ENTITY st6 "fill:#FFFFFF;">
	<!ENTITY st7 "fill:#FFFFFF;stroke:#000000;">
	<!ENTITY st8 "font-size:18;">
]>
<svg  xmlns="&ns_svg;" xmlns:xlink="&ns_xlink;" xmlns:a="http://ns.adobe.com/AdobeSVGViewerExtensions/3.0/"
	 width="369.824" height="92.875" viewBox="0 0 369.824 92.875" style="overflow:visible;enable-background:new 0 0 369.824 92.875"
	 xml:space="preserve">
	<metadata>
<?xpacket begin='﻿' id='W5M0MpCehiHzreSzNTczkc9d'?><?adobe-xap-filters esc="CR"?>
<rdf:RDF xmlns:rdf='http://www.w3.org/1999/02/22-rdf-syntax-ns#' xmlns:iX='http://ns.adobe.com/iX/1.0/'>

 <rdf:Description about=''
  xmlns:pdf='http://ns.adobe.com/pdf/1.3/'>
  <pdf:Producer>Adobe PDF library 5.00</pdf:Producer>
  <!-- pdf:CreationDate is aliased -->
  <!-- pdf:ModDate is aliased -->
  <!-- pdf:Creator is aliased -->
 </rdf:Description>

 <rdf:Description about=''
  xmlns:xap='http://ns.adobe.com/xap/1.0/'>
  <xap:CreateDate>2004-01-24T19:46:11-04:00</xap:CreateDate>
  <xap:ModifyDate>2005-12-31T22:30:51Z</xap:ModifyDate>
  <xap:CreatorTool>Adobe Illustrator 10.0</xap:CreatorTool>
  <xap:MetadataDate>2004-01-24T19:46:12-05:00</xap:MetadataDate>
 </rdf:Description>

</rdf:RDF>
                                                                                                                                                                                                                                                                                                                                                                                                                                                                                                                                                                                                                                                                                                                                                                                                                                                                                                                                                                                                                                                                                                                                                                                                                                                                                                                                                                                                                                                                                                                                                                                                                                                                                                                                                                                                                                                                                                                                                                                                                                                                                                                                <?xpacket end='w'?>
			</metadata>
		<g id="Layer_1">
			<path style="&st6;" d="M369.824,64.086h-2.818V12.878h2.818V64.086z"/>
			<path style="&st7;" d="M368.081,63.939H0.5V12.89h367.581V63.939z"/>
			<path style="&st4;" d="M315.706,63.561v-50.35"/>
			<path style="&st4;" d="M158.453,63.561v-50.35"/>
			<path style="&st4;" d="M106.035,63.561v-50.35"/>
			<path style="&st4;" d="M53.618,63.561v-50.35"/>
			<path style="&st4;" d="M263.289,63.561v-50.35"/>
			<path style="&st4;" d="M210.871,63.561v-50.35"/>
			<text transform="matrix(1 0 0 1 23.2471 88.3755)"><tspan x="0" y="0" style="&st0; &st8;">0</tspan></text>
			<text transform="matrix(1 0 0 1 73.2471 88.3755)"><tspan x="0" y="0" style="&st0; &st8;">1</tspan></text>
			<text transform="matrix(1 0 0 1 126.7471 88.3755)"><tspan x="0" y="0" style="&st0; &st8;">2</tspan></text>
			<text transform="matrix(1 0 0 1 179.2471 88.3755)"><tspan x="0" y="0" style="&st0; &st8;">3</tspan></text>
			<text transform="matrix(1 0 0 1 230.7471 88.3755)"><tspan x="0" y="0" style="&st0; &st8;">4</tspan></text>
			<text transform="matrix(1 0 0 1 283.2466 88.3755)"><tspan x="0" y="0" style="&st0; &st8;">5</tspan></text>
			<text transform="matrix(1 0 0 1 336.7466 88.3755)"><tspan x="0" y="0" style="&st0; &st8;">6</tspan></text>
			<path style="&st4;" d="M40.364,39.375c0,8.008-6.492,14.5-14.5,14.5s-14.5-6.492-14.5-14.5s6.492-14.5,14.5-14.5
				S40.364,31.367,40.364,39.375z"/>
			<path style="&st4;" d="M93.864,39.375c0,8.008-6.492,14.5-14.5,14.5s-14.5-6.492-14.5-14.5s6.492-14.5,14.5-14.5
				S93.864,31.367,93.864,39.375z"/>
			<path style="&st4;" d="M144.864,39.375c0,8.008-6.492,14.5-14.5,14.5s-14.5-6.492-14.5-14.5s6.492-14.5,14.5-14.5
				S144.864,31.367,144.864,39.375z"/>
			<path style="&st4;" d="M196.864,39.375c0,8.008-6.492,14.5-14.5,14.5s-14.5-6.492-14.5-14.5s6.492-14.5,14.5-14.5
				S196.864,31.367,196.864,39.375z"/>
			<path style="&st4;" d="M356.364,39.375c0,8.008-6.492,14.5-14.5,14.5s-14.5-6.492-14.5-14.5s6.492-14.5,14.5-14.5
				S356.364,31.367,356.364,39.375z"/>
			<path style="&st4;" d="M302.864,39.375c0,8.008-6.492,14.5-14.5,14.5s-14.5-6.492-14.5-14.5s6.492-14.5,14.5-14.5
				S302.864,31.367,302.864,39.375z"/>
			<path style="&st4;" d="M249.364,39.375c0,8.008-6.492,14.5-14.5,14.5s-14.5-6.492-14.5-14.5s6.492-14.5,14.5-14.5
				S249.364,31.367,249.364,39.375z"/>
			<g>
				<g style="&st3;">
					<path style="&st5;" d="M64.899,39.875c-2.84,1.054-6.363,2.852-8.547,4.755l1.72-4.755l-1.72-4.755
						C58.536,37.024,62.059,38.822,64.899,39.875z"/>
				</g>
				<g style="&st3;">
					<path style="&st2;" d="M40.364,40.375c5.952,0.523,12.431-0.5,18.5-0.5"/>
					<path style="&st1;" d="M64.899,39.875c-2.84,1.054-6.363,2.852-8.547,4.755l1.72-4.755l-1.72-4.755
						C58.536,37.024,62.059,38.822,64.899,39.875z"/>
				</g>
			</g>
			<g>
				<g style="&st3;">
					<path style="&st5;" d="M122.23,28.253c-3.007-0.363-6.963-0.376-9.775,0.317l3.705-3.441l0.646-5.015
						C117.877,22.806,120.187,26.017,122.23,28.253z"/>
				</g>
				<g style="&st3;">
					<path style="&st2;" d="M38.301,30.375c-0.996,0.498-1.324,0.492-0.984-0.019c8.194-7.744,28.593-11.238,40.501-11.938
						c14.785-0.869,26.959,0.852,39.046,7.072"/>
					<path style="&st1;" d="M122.23,28.253c-3.007-0.363-6.963-0.376-9.775,0.317l3.705-3.441l0.646-5.015
						C117.877,22.806,120.187,26.017,122.23,28.253z"/>
				</g>
			</g>
			<g>
				<g style="&st3;">
					<path style="&st5;" d="M171.836,48.616c-1.742,2.478-3.626,5.956-4.347,8.761l-1.278-4.892l-4.112-2.942
						C164.977,49.874,168.899,49.358,171.836,48.616z"/>
				</g>
				<g style="&st3;">
					<path style="&st2;" d="M89.864,50.375c1.343,1.655,7.868,5.082,10.366,6.32c5.831,2.888,15.439,4.287,22.608,4.569
						c14.828,0.583,33.544-2.017,44.026-9.228"/>
					<path style="&st1;" d="M171.836,48.616c-1.742,2.478-3.626,5.956-4.347,8.761l-1.278-4.892l-4.112-2.942
						C164.977,49.874,168.899,49.358,171.836,48.616z"/>
				</g>
			</g>
			<g>
				<g style="&st3;">
					<path style="&st5;" d="M225.748,51.33c-1.679,2.521-3.474,6.046-4.123,8.869l-1.402-4.858l-4.185-2.838
						C218.923,52.761,222.831,52.146,225.748,51.33z"/>
				</g>
				<g style="&st3;">
					<path style="&st2;" d="M82.364,55.262c-0.416-0.266-0.878-0.391-1.386-0.377c10.79,11.786,28.85,16.501,46.783,17.007
						c29.355,0.828,70.315-0.474,93.104-17.017"/>
					<path style="&st1;" d="M225.748,51.33c-1.679,2.521-3.474,6.046-4.123,8.869l-1.402-4.858l-4.185-2.838
						C218.923,52.761,222.831,52.146,225.748,51.33z"/>
				</g>
			</g>
			<g>
				<g style="&st3;">
					<path style="&st5;" d="M277.208,30.415c-3.013,0.313-6.874,1.175-9.463,2.473l2.851-4.175l-0.479-5.034
						C271.757,26.066,274.721,28.687,277.208,30.415z"/>
				</g>
				<g style="&st3;">
					<path style="&st2;" d="M142.364,32.875c5.643-5.37,16.193-7.9,23.226-10.009c10.891-3.266,23.886-3.403,35.328-4.078
						c24.563-1.449,47.229,4.142,70.447,10.121"/>
					<path style="&st1;" d="M277.208,30.415c-3.013,0.313-6.874,1.175-9.463,2.473l2.851-4.175l-0.479-5.034
						C271.757,26.066,274.721,28.687,277.208,30.415z"/>
				</g>
			</g>
			<g>
				<g style="&st3;">
					<path style="&st5;" d="M331.712,28.469c-2.908-0.844-6.81-1.498-9.697-1.268l4.212-2.797l1.449-4.844
						C328.297,22.389,330.058,25.932,331.712,28.469z"/>
				</g>
				<g style="&st3;">
					<path style="&st2;" d="M136.864,25.875c9.519-9.167,23.575-13.592,35.919-17.611c40.031-13.036,83.336-8.288,123.195,2.816
						c10.479,2.919,22.027,7.231,30.886,13.795"/>
					<path style="&st1;" d="M331.712,28.469c-2.908-0.844-6.81-1.498-9.697-1.268l4.212-2.797l1.449-4.844
						C328.297,22.389,330.058,25.932,331.712,28.469z"/>
				</g>
			</g>
		</g>
	</svg>
