<?xml version="1.0" encoding="UTF-8" standalone="no"?>
<!DOCTYPE svg PUBLIC "-//W3C//DTD SVG 1.1//EN"
 "http://www.w3.org/Graphics/SVG/1.1/DTD/svg11.dtd">
<!-- Generated by graphviz version 2.38.0 (20140413.2041)
 -->
<!-- Title: %3 Pages: 1 -->
<svg width="206pt" height="188pt"
 viewBox="0.00 0.00 206.00 188.00" xmlns="http://www.w3.org/2000/svg" xmlns:xlink="http://www.w3.org/1999/xlink">
<g id="graph0" class="graph" transform="scale(1 1) rotate(0) translate(4 184)">
<title>%3</title>
<polygon fill="white" stroke="none" points="-4,4 -4,-184 202,-184 202,4 -4,4"/>
<!-- R -->
<g id="node1" class="node"><title>R</title>
<ellipse fill="lightgrey" stroke="black" cx="99" cy="-162" rx="18" ry="18"/>
<text text-anchor="middle" x="99" y="-158.3" font-family="Times,serif" font-size="14.00">1</text>
</g>
<!-- 2 -->
<g id="node2" class="node"><title>2</title>
<ellipse fill="none" stroke="black" cx="72" cy="-90" rx="18" ry="18"/>
<text text-anchor="middle" x="72" y="-86.3" font-family="Times,serif" font-size="14.00">2</text>
</g>
<!-- R&#45;&gt;2 -->
<g id="edge1" class="edge"><title>R&#45;&gt;2</title>
<path fill="none" stroke="black" d="M92.7378,-144.765C89.5004,-136.371 85.4747,-125.934 81.8339,-116.495"/>
<polygon fill="black" stroke="black" points="85.0925,-115.218 78.2282,-107.147 78.5615,-117.737 85.0925,-115.218"/>
</g>
<!-- 5 -->
<g id="node3" class="node"><title>5</title>
<ellipse fill="none" stroke="black" cx="126" cy="-90" rx="18" ry="18"/>
<text text-anchor="middle" x="126" y="-86.3" font-family="Times,serif" font-size="14.00">5</text>
</g>
<!-- R&#45;&gt;5 -->
<g id="edge2" class="edge"><title>R&#45;&gt;5</title>
<path fill="none" stroke="black" d="M105.262,-144.765C108.5,-136.371 112.525,-125.934 116.166,-116.495"/>
<polygon fill="black" stroke="black" points="119.438,-117.737 119.772,-107.147 112.907,-115.218 119.438,-117.737"/>
</g>
<!-- 9 -->
<g id="node4" class="node"><title>9</title>
<ellipse fill="none" stroke="black" cx="18" cy="-18" rx="18" ry="18"/>
<text text-anchor="middle" x="18" y="-14.3" font-family="Times,serif" font-size="14.00">9</text>
</g>
<!-- 2&#45;&gt;9 -->
<g id="edge3" class="edge"><title>2&#45;&gt;9</title>
<path fill="none" stroke="black" d="M61.3313,-75.1703C53.7874,-65.391 43.5188,-52.0799 34.8713,-40.8702"/>
<polygon fill="black" stroke="black" points="37.5258,-38.581 28.6465,-32.801 31.9833,-42.8567 37.5258,-38.581"/>
</g>
<!-- 4 -->
<g id="node5" class="node"><title>4</title>
<ellipse fill="none" stroke="black" cx="72" cy="-18" rx="18" ry="18"/>
<text text-anchor="middle" x="72" y="-14.3" font-family="Times,serif" font-size="14.00">4</text>
</g>
<!-- 2&#45;&gt;4 -->
<g id="edge4" class="edge"><title>2&#45;&gt;4</title>
<path fill="none" stroke="black" d="M72,-71.6966C72,-63.9827 72,-54.7125 72,-46.1124"/>
<polygon fill="black" stroke="black" points="75.5001,-46.1043 72,-36.1043 68.5001,-46.1044 75.5001,-46.1043"/>
</g>
<!-- 8 -->
<g id="node6" class="node"><title>8</title>
<ellipse fill="none" stroke="black" cx="126" cy="-18" rx="18" ry="18"/>
<text text-anchor="middle" x="126" y="-14.3" font-family="Times,serif" font-size="14.00">8</text>
</g>
<!-- 5&#45;&gt;8 -->
<g id="edge5" class="edge"><title>5&#45;&gt;8</title>
<path fill="none" stroke="black" d="M126,-71.6966C126,-63.9827 126,-54.7125 126,-46.1124"/>
<polygon fill="black" stroke="black" points="129.5,-46.1043 126,-36.1043 122.5,-46.1044 129.5,-46.1043"/>
</g>
<!-- 7 -->
<g id="node7" class="node"><title>7</title>
<ellipse fill="none" stroke="black" cx="180" cy="-18" rx="18" ry="18"/>
<text text-anchor="middle" x="180" y="-14.3" font-family="Times,serif" font-size="14.00">7</text>
</g>
<!-- 5&#45;&gt;7 -->
<g id="edge6" class="edge"><title>5&#45;&gt;7</title>
<path fill="none" stroke="black" d="M136.669,-75.1703C144.213,-65.391 154.481,-52.0799 163.129,-40.8702"/>
<polygon fill="black" stroke="black" points="166.017,-42.8567 169.354,-32.801 160.474,-38.581 166.017,-42.8567"/>
</g>
</g>
</svg>
